{
	"asset":{
		"generator":"Khronos glTF Blender I/O v5.0.21",
		"version":"2.0"
	},
	"scene":0,
	"scenes":[
		{
			"name":"Scene",
			"nodes":[
				0
			]
		}
	],
	"nodes":[
		{
			"mesh":0,
			"name":"StoneWall-4581"
		}
	],
	"materials":[
		{
			"alphaMode":"BLEND",
			"doubleSided":true,
			"name":"StoneWall-4581",
			"pbrMetallicRoughness":{
				"baseColorTexture":{
					"index":0
				},
				"metallicFactor":0,
				"roughnessFactor":0.5
			}
		}
	],
	"meshes":[
		{
			"name":"StoneWall-4581",
			"primitives":[
				{
					"attributes":{
						"POSITION":0,
						"NORMAL":1,
						"TEXCOORD_0":2
					},
					"indices":3,
					"material":0
				}
			]
		}
	],
	"textures":[
		{
			"sampler":0,
			"source":0
		}
	],
	"images":[
		{
			"mimeType":"image/png",
			"name":"StoneWall-4581",
			"uri":"StoneWall-4581.png"
		}
	],
	"accessors":[
		{
			"bufferView":0,
			"componentType":5126,
			"count":1855,
			"max":[
				50,
				87.84844970703125,
				2.1528551314986544e-06
			],
			"min":[
				-49.15481948852539,
				-10.006599426269531,
				-25.686508178710938
			],
			"type":"VEC3"
		},
		{
			"bufferView":1,
			"componentType":5126,
			"count":1855,
			"type":"VEC3"
		},
		{
			"bufferView":2,
			"componentType":5126,
			"count":1855,
			"type":"VEC2"
		},
		{
			"bufferView":3,
			"componentType":5123,
			"count":3936,
			"type":"SCALAR"
		}
	],
	"bufferViews":[
		{
			"buffer":0,
			"byteLength":22260,
			"byteOffset":0,
			"target":34962
		},
		{
			"buffer":0,
			"byteLength":22260,
			"byteOffset":22260,
			"target":34962
		},
		{
			"buffer":0,
			"byteLength":14840,
			"byteOffset":44520,
			"target":34962
		},
		{
			"buffer":0,
			"byteLength":7872,
			"byteOffset":59360,
			"target":34963
		}
	],
	"samplers":[
		{
			"magFilter":9729,
			"minFilter":9987,
			"wrapS":33071,
			"wrapT":33071
		}
	],
	"buffers":[
		{
			"byteLength":67232,
			"uri":"towers_love.bin"
		}
	]
}
